<?xml version="1.0" encoding="UTF-8"?>
<svg width="24px" height="24px" viewBox="0 0 24 24" version="1.1" xmlns="http://www.w3.org/2000/svg" xmlns:xlink="http://www.w3.org/1999/xlink">
    <!-- Generator: Sketch 50.2 (55047) - http://www.bohemiancoding.com/sketch -->
    <title>contact</title>
    <desc>Created with Sketch.</desc>
    <defs></defs>
    <g id="定稿" stroke="none" stroke-width="1" fill="none" fill-rule="evenodd">
        <g id="切图" transform="translate(-148.000000, -22.000000)" fill="#211815">
            <g id="contact" transform="translate(148.000000, 22.000000)">
                <path d="M20.3052,12.75975 C20.3052,12.07875 19.6952,11.52125 18.9492,11.52125 C18.2032,11.52125 17.5932,12.07875 17.5932,12.75975 L17.5932,13.37825 C17.5932,14.05925 18.2032,14.61625 18.9492,14.61625 C19.6952,14.61625 20.3052,14.05925 20.3052,13.37825 L20.3052,12.75975 Z M3.6947,13.37825 C3.6947,14.05925 4.3052,14.61625 5.0507,14.61625 C5.7967,14.61625 6.4067,14.05925 6.4067,13.37825 L6.4067,12.75975 C6.4067,12.07875 5.7967,11.52125 5.0507,11.52125 C4.3052,11.52125 3.6947,12.07875 3.6947,12.75975 L3.6947,13.37825 Z M16.2032,21.98125 L15.4917,20.58875 C15.4917,20.58875 19.1867,18.02025 19.8987,16.04025 C19.5932,16.10175 19.2542,16.16375 18.9492,16.16375 C17.2542,16.16375 15.8987,14.92575 15.8987,13.37825 L15.8987,12.75975 C15.8987,11.21225 17.2542,9.97475 18.9492,9.97475 C19.4237,9.97475 19.8987,10.06725 20.3052,10.28375 L20.3052,10.16025 C20.3052,5.95175 16.5762,2.54725 12.0002,2.54725 C7.4237,2.54725 3.6947,5.95175 3.6947,10.12875 L3.6947,10.25275 C5.1867,9.57225 7.0167,10.12875 7.7627,11.49075 C7.9662,11.89325 8.1017,12.29525 8.1017,12.72875 L8.1017,13.34775 C8.1017,14.89525 6.7457,16.13275 5.0507,16.13275 C3.6272,16.13275 2.4067,15.23525 2.0677,13.99775 C2.0342,13.90475 2.0002,13.81175 2.0002,13.68775 L2.0002,10.12875 C2.0002,5.08475 6.4747,0.99975 12.0002,0.99975 C17.5252,0.99975 22.0002,5.08475 22.0002,10.12875 L22.0002,13.68775 C22.0002,19.50575 16.2032,21.98125 16.2032,21.98125 Z" id="Fill-2"></path>
                <path d="M16.5,21.45265 C16.531,22.25715 15.912,22.96865 15.0765,23.00015 L14.9835,23.00015 C14.117,23.03065 13.4365,22.35015 13.4055,21.48365 C13.3745,20.61715 14.0555,19.93615 14.922,19.90515 C15.7885,19.87465 16.469,20.55515 16.5,21.45265 C16.5,21.42165 16.5,21.45265 16.5,21.45265" id="Fill-4"></path>
            </g>
        </g>
    </g>
</svg>