<?xml version="1.0" standalone="no"?><!DOCTYPE svg PUBLIC "-//W3C//DTD SVG 1.1//EN" "http://www.w3.org/Graphics/SVG/1.1/DTD/svg11.dtd"><svg t="1544153631847" class="icon" style="" viewBox="0 0 1024 1024" version="1.1" xmlns="http://www.w3.org/2000/svg" p-id="920" xmlns:xlink="http://www.w3.org/1999/xlink" width="200" height="200"><defs><style type="text/css"></style></defs><path d="M987.093333 405.333333L576 65.706667a101.76 101.76 0 0 0-129.493333 0L36.906667 405.333333A42.666667 42.666667 0 0 0 85.333333 474.24v402.986667A106.666667 106.666667 0 0 0 193.92 981.333333h636.16A106.666667 106.666667 0 0 0 938.666667 877.226667V474.24A42.666667 42.666667 0 0 0 987.093333 405.333333zM853.333333 405.333333v471.893334a21.333333 21.333333 0 0 1-23.253333 18.773333H193.92A21.333333 21.333333 0 0 1 170.666667 877.226667V405.333333L501.12 132.053333a16.213333 16.213333 0 0 1 21.333333 0L853.333333 405.333333z" fill="#222222" p-id="921"></path><path d="M469.333333 618.666667v85.333333a42.666667 42.666667 0 0 0 85.333334 0v-85.333333a42.666667 42.666667 0 0 0-85.333334 0z" fill="#222222" p-id="922"></path></svg>