<?xml version="1.0" standalone="no"?><!DOCTYPE svg PUBLIC "-//W3C//DTD SVG 1.1//EN" "http://www.w3.org/Graphics/SVG/1.1/DTD/svg11.dtd"><svg t="1544508241148" class="icon" style="" viewBox="0 0 1024 1024" version="1.1" xmlns="http://www.w3.org/2000/svg" p-id="801" xmlns:xlink="http://www.w3.org/1999/xlink" width="200" height="200"><defs><style type="text/css"></style></defs><path d="M362.666667 42.666667H170.666667a128 128 0 0 0-128 128v192a128 128 0 0 0 128 128h192a128 128 0 0 0 128-128V170.666667a128 128 0 0 0-128-128z m42.666666 320a42.666667 42.666667 0 0 1-42.666666 42.666666H170.666667a42.666667 42.666667 0 0 1-42.666667-42.666666V170.666667a42.666667 42.666667 0 0 1 42.666667-42.666667h192a42.666667 42.666667 0 0 1 42.666666 42.666667zM362.666667 533.333333H170.666667a128 128 0 0 0-128 128v192a128 128 0 0 0 128 128h192a128 128 0 0 0 128-128v-192a128 128 0 0 0-128-128z m42.666666 320a42.666667 42.666667 0 0 1-42.666666 42.666667H170.666667a42.666667 42.666667 0 0 1-42.666667-42.666667v-192a42.666667 42.666667 0 0 1 42.666667-42.666666h192a42.666667 42.666667 0 0 1 42.666666 42.666666zM853.333333 42.666667h-192a128 128 0 0 0-128 128v192a128 128 0 0 0 128 128h192a128 128 0 0 0 128-128V170.666667a128 128 0 0 0-128-128z m42.666667 320a42.666667 42.666667 0 0 1-42.666667 42.666666h-192a42.666667 42.666667 0 0 1-42.666666-42.666666V170.666667a42.666667 42.666667 0 0 1 42.666666-42.666667h192a42.666667 42.666667 0 0 1 42.666667 42.666667zM912 579.2h-309.333333a39.466667 39.466667 0 1 0 0 78.72h309.333333a39.466667 39.466667 0 1 0 0-78.72zM912 717.866667h-309.333333a39.466667 39.466667 0 1 0 0 78.72h309.333333a39.466667 39.466667 0 1 0 0-78.72zM912 856.533333h-309.333333a39.466667 39.466667 0 1 0 0 78.72h309.333333a39.466667 39.466667 0 1 0 0-78.72z" fill="#222222" p-id="802"></path></svg>