<?xml version="1.0" standalone="no"?><!DOCTYPE svg PUBLIC "-//W3C//DTD SVG 1.1//EN" "http://www.w3.org/Graphics/SVG/1.1/DTD/svg11.dtd"><svg t="1544508264217" class="icon" style="" viewBox="0 0 1024 1024" version="1.1" xmlns="http://www.w3.org/2000/svg" p-id="910" xmlns:xlink="http://www.w3.org/1999/xlink" width="200" height="200"><defs><style type="text/css"></style></defs><path d="M85.333333 192h362.666667v213.333333H85.333333zM85.333333 682.666667h362.666667v213.333333H85.333333zM576 192h362.666667v213.333333H576z" fill="#FFDA29" p-id="911"></path><path d="M362.666667 128a42.666667 42.666667 0 0 1 42.666666 42.666667v192a42.666667 42.666667 0 0 1-42.666666 42.666666H170.666667a42.666667 42.666667 0 0 1-42.666667-42.666666V170.666667a42.666667 42.666667 0 0 1 42.666667-42.666667h192m0-85.333333H170.666667a128 128 0 0 0-128 128v192a128 128 0 0 0 128 128h192a128 128 0 0 0 128-128V170.666667a128 128 0 0 0-128-128zM362.666667 618.666667a42.666667 42.666667 0 0 1 42.666666 42.666666v192a42.666667 42.666667 0 0 1-42.666666 42.666667H170.666667a42.666667 42.666667 0 0 1-42.666667-42.666667v-192a42.666667 42.666667 0 0 1 42.666667-42.666666h192m0-85.333334H170.666667a128 128 0 0 0-128 128v192a128 128 0 0 0 128 128h192a128 128 0 0 0 128-128v-192a128 128 0 0 0-128-128zM853.333333 128a42.666667 42.666667 0 0 1 42.666667 42.666667v192a42.666667 42.666667 0 0 1-42.666667 42.666666h-192a42.666667 42.666667 0 0 1-42.666666-42.666666V170.666667a42.666667 42.666667 0 0 1 42.666666-42.666667h192m0-85.333333h-192a128 128 0 0 0-128 128v192a128 128 0 0 0 128 128h192a128 128 0 0 0 128-128V170.666667a128 128 0 0 0-128-128zM912 658.133333h-309.333333a39.466667 39.466667 0 1 1 0-78.72h309.333333a39.466667 39.466667 0 1 1 0 78.72zM912 796.8h-309.333333a39.466667 39.466667 0 1 1 0-78.72h309.333333a39.466667 39.466667 0 1 1 0 78.72zM912 935.466667h-309.333333a39.466667 39.466667 0 1 1 0-78.72h309.333333a39.466667 39.466667 0 1 1 0 78.72z" fill="#111111" p-id="912"></path></svg>