<?xml version="1.0" standalone="no"?><!DOCTYPE svg PUBLIC "-//W3C//DTD SVG 1.1//EN" "http://www.w3.org/Graphics/SVG/1.1/DTD/svg11.dtd"><svg t="1544508273572" class="icon" style="" viewBox="0 0 1024 1024" version="1.1" xmlns="http://www.w3.org/2000/svg" p-id="1020" xmlns:xlink="http://www.w3.org/1999/xlink" width="200" height="200"><defs><style type="text/css"></style></defs><path d="M512 21.333333a245.333333 245.333333 0 1 0 245.333333 245.333334A245.333333 245.333333 0 0 0 512 21.333333z m0 405.333334a160 160 0 1 1 160-160A160.213333 160.213333 0 0 1 512 426.666667z" fill="#211815" p-id="1021"></path><path d="M512 533.333333c170.666667 0 320 129.493333 320 277.333334 0 16.64 0 51.626667-83.2 78.933333A794.88 794.88 0 0 1 512 917.333333a790.826667 790.826667 0 0 1-229.973333-27.946666C192 860.586667 192 824.32 192 810.666667c0-147.84 149.333333-277.333333 320-277.333334m0-85.333333C288.213333 448 106.666667 620.586667 106.666667 810.666667c0 170.666667 263.466667 192 405.333333 192 162.133333 0 405.333333-21.333333 405.333333-192 0-190.08-181.546667-362.666667-405.333333-362.666667z" fill="#211815" p-id="1022"></path></svg>